# xmcd
#
# Track frame offsets:
#	150
#	17778
#	31711
#	50887
#	71911
#	90409
#	107574
#	126083
#	144151
#	169389
#	191493
#	214932
#
# Disc length: 3231 seconds
#
# Revision: 0
# Processed by: cddbd v1.5.1PL2 Copyright (c) Steve Scherf et al.
# Submitted via: dBpowerAMP V4.0
#
DISCID=a80c9d0c
DTITLE=Sara Evans - Feels Like Home
DYEAR=2005
DGENRE=Country
TTITLE0=The Great Unkown
TTITLE1=Fool, I'm a Woman
TTITLE2=No Place That Far
TTITLE3=Born to Fly
TTITLE4=Three Chords and the Truth
TTITLE5=Why Should I Care
TTITLE6=Let's Dance
TTITLE7=Rockin' Horse
TTITLE8=Niagara
TTITLE9=I Give In
TTITLE10=You Don't
TTITLE11=Every Little Kiss
EXTD=cd Sara released through Cracker Barrel
EXTT0=
EXTT1=
EXTT2=
EXTT3=
EXTT4=
EXTT5=
EXTT6=
EXTT7=
EXTT8=
EXTT9=
EXTT10=
EXTT11=
PLAYORDER=
